<svg xmlns="http://www.w3.org/2000/svg" version="1.1" xmlnsXlink="http://www.w3.org/1999/xlink" xmlnsSvgjs="http://svgjs.com/svgjs" width="1440" height="560" preserveAspectRatio="none" viewBox="0 0 1440 560">
    <g mask="url(&quot;#SvgjsMask1014&quot;)" fill="none">
        <rect width="1440" height="560" x="0" y="0" fill="rgba(9, 42, 76, 1)"></rect>
        <path d="M-78.14 394.02L-78.14 394.02" stroke="rgba(16, 75, 132, 1)" stroke-width="1.5"></path>
        <path d="M-78.14 394.02L-39.54 503" stroke="rgba(16, 75, 132, 1)" stroke-width="1.5"></path>
        <path d="M-78.14 394.02L96.38 410.16" stroke="rgba(16, 75, 132, 1)" stroke-width="1.5"></path>
        <path d="M-78.14 394.02L89.2 491.25" stroke="rgba(16, 75, 132, 1)" stroke-width="1.5"></path>
        <path d="M-78.14 394.02L-103.16 710.41" stroke="rgba(16, 75, 132, 1)" stroke-width="1.5"></path>
        <path d="M-78.14 394.02L198.95 555.05" stroke="rgba(16, 75, 132, 1)" stroke-width="1.5"></path>
        <path d="M-78.14 394.02L245.16 375.68" stroke="rgba(16, 75, 132, 1)" stroke-width="1.5"></path>
        <path d="M-39.54 503L-39.54 503" stroke="rgba(16, 75, 132, 1)" stroke-width="1.5"></path>
        <path d="M-39.54 503L89.2 491.25" stroke="rgba(16, 75, 132, 1)" stroke-width="1.5"></path>
        <path d="M-39.54 503L96.38 410.16" stroke="rgba(16, 75, 132, 1)" stroke-width="1.5"></path>
        <path d="M-39.54 503L54.82 692.17" stroke="rgba(16, 75, 132, 1)" stroke-width="1.5"></path>
        <path d="M-39.54 503L-103.16 710.41" stroke="rgba(16, 75, 132, 1)" stroke-width="1.5"></path>
        <path d="M-103.16 710.41L-103.16 710.41" stroke="rgba(16, 75, 132, 1)" stroke-width="1.5"></path>
        <path d="M-103.16 710.41L54.82 692.17" stroke="rgba(16, 75, 132, 1)" stroke-width="1.5"></path>
        <path d="M-103.16 710.41L89.2 491.25" stroke="rgba(16, 75, 132, 1)" stroke-width="1.5"></path>
        <path d="M96.38 410.16L96.38 410.16" stroke="rgba(16, 75, 132, 1)" stroke-width="1.5"></path>
        <path d="M96.38 410.16L89.2 491.25" stroke="rgba(16, 75, 132, 1)" stroke-width="1.5"></path>
        <path d="M96.38 410.16L245.16 375.68" stroke="rgba(16, 75, 132, 1)" stroke-width="1.5"></path>
        <path d="M89.2 491.25L89.2 491.25" stroke="rgba(16, 75, 132, 1)" stroke-width="1.5"></path>
        <path d="M89.2 491.25L198.95 555.05" stroke="rgba(16, 75, 132, 1)" stroke-width="1.5"></path>
        <path d="M54.82 692.17L54.82 692.17" stroke="rgba(16, 75, 132, 1)" stroke-width="1.5"></path>
        <path d="M54.82 692.17L198.95 555.05" stroke="rgba(16, 75, 132, 1)" stroke-width="1.5"></path>
        <path d="M54.82 692.17L89.2 491.25" stroke="rgba(16, 75, 132, 1)" stroke-width="1.5"></path>
        <path d="M54.82 692.17L96.38 410.16" stroke="rgba(16, 75, 132, 1)" stroke-width="1.5"></path>
        <path d="M54.82 692.17L-78.14 394.02" stroke="rgba(16, 75, 132, 1)" stroke-width="1.5"></path>
        <path d="M245.16 375.68L245.16 375.68" stroke="rgba(16, 75, 132, 1)" stroke-width="1.5"></path>
        <path d="M245.16 375.68L345.55 378.43" stroke="rgba(16, 75, 132, 1)" stroke-width="1.5"></path>
        <path d="M245.16 375.68L198.95 555.05" stroke="rgba(16, 75, 132, 1)" stroke-width="1.5"></path>
        <path d="M245.16 375.68L89.2 491.25" stroke="rgba(16, 75, 132, 1)" stroke-width="1.5"></path>
        <path d="M245.16 375.68L394.75 504.54" stroke="rgba(16, 75, 132, 1)" stroke-width="1.5"></path>
        <path d="M198.95 555.05L198.95 555.05" stroke="rgba(16, 75, 132, 1)" stroke-width="1.5"></path>
        <path d="M198.95 555.05L96.38 410.16" stroke="rgba(16, 75, 132, 1)" stroke-width="1.5"></path>
        <path d="M345.55 378.43L345.55 378.43" stroke="rgba(16, 75, 132, 1)" stroke-width="1.5"></path>
        <path d="M345.55 378.43L394.75 504.54" stroke="rgba(16, 75, 132, 1)" stroke-width="1.5"></path>
        <path d="M345.55 378.43L504.73 339.97" stroke="rgba(16, 75, 132, 1)" stroke-width="1.5"></path>
        <path d="M345.55 378.43L198.95 555.05" stroke="rgba(16, 75, 132, 1)" stroke-width="1.5"></path>
        <path d="M345.55 378.43L526.08 546.4" stroke="rgba(16, 75, 132, 1)" stroke-width="1.5"></path>
        <path d="M394.75 504.54L394.75 504.54" stroke="rgba(16, 75, 132, 1)" stroke-width="1.5"></path>
        <path d="M394.75 504.54L526.08 546.4" stroke="rgba(16, 75, 132, 1)" stroke-width="1.5"></path>
        <path d="M411 673.69L411 673.69" stroke="rgba(16, 75, 132, 1)" stroke-width="1.5"></path>
        <path d="M411 673.69L394.75 504.54" stroke="rgba(16, 75, 132, 1)" stroke-width="1.5"></path>
        <path d="M411 673.69L526.08 546.4" stroke="rgba(16, 75, 132, 1)" stroke-width="1.5"></path>
        <path d="M411 673.69L647.35 651.63" stroke="rgba(16, 75, 132, 1)" stroke-width="1.5"></path>
        <path d="M504.73 339.97L504.73 339.97" stroke="rgba(16, 75, 132, 1)" stroke-width="1.5"></path>
        <path d="M504.73 339.97L645.36 338.69" stroke="rgba(16, 75, 132, 1)" stroke-width="1.5"></path>
        <path d="M504.73 339.97L394.75 504.54" stroke="rgba(16, 75, 132, 1)" stroke-width="1.5"></path>
        <path d="M504.73 339.97L668.69 216.85" stroke="rgba(16, 75, 132, 1)" stroke-width="1.5"></path>
        <path d="M504.73 339.97L526.08 546.4" stroke="rgba(16, 75, 132, 1)" stroke-width="1.5"></path>
        <path d="M504.73 339.97L245.16 375.68" stroke="rgba(16, 75, 132, 1)" stroke-width="1.5"></path>
        <path d="M526.08 546.4L526.08 546.4" stroke="rgba(16, 75, 132, 1)" stroke-width="1.5"></path>
        <path d="M526.08 546.4L647.35 651.63" stroke="rgba(16, 75, 132, 1)" stroke-width="1.5"></path>
        <path d="M668.69 216.85L668.69 216.85" stroke="rgba(16, 75, 132, 1)" stroke-width="1.5"></path>
        <path d="M668.69 216.85L645.36 338.69" stroke="rgba(16, 75, 132, 1)" stroke-width="1.5"></path>
        <path d="M668.69 216.85L832.31 229.12" stroke="rgba(16, 75, 132, 1)" stroke-width="1.5"></path>
        <path d="M668.69 216.85L795.23 363.99" stroke="rgba(16, 75, 132, 1)" stroke-width="1.5"></path>
        <path d="M668.69 216.85L976.37 225.28" stroke="rgba(16, 75, 132, 1)" stroke-width="1.5"></path>
        <path d="M645.36 338.69L645.36 338.69" stroke="rgba(16, 75, 132, 1)" stroke-width="1.5"></path>
        <path d="M645.36 338.69L795.23 363.99" stroke="rgba(16, 75, 132, 1)" stroke-width="1.5"></path>
        <path d="M645.36 338.69L832.31 229.12" stroke="rgba(16, 75, 132, 1)" stroke-width="1.5"></path>
        <path d="M645.36 338.69L702.34 560.07" stroke="rgba(16, 75, 132, 1)" stroke-width="1.5"></path>
        <path d="M702.34 560.07L702.34 560.07" stroke="rgba(16, 75, 132, 1)" stroke-width="1.5"></path>
        <path d="M702.34 560.07L647.35 651.63" stroke="rgba(16, 75, 132, 1)" stroke-width="1.5"></path>
        <path d="M702.34 560.07L826.15 521.87" stroke="rgba(16, 75, 132, 1)" stroke-width="1.5"></path>
        <path d="M702.34 560.07L526.08 546.4" stroke="rgba(16, 75, 132, 1)" stroke-width="1.5"></path>
        <path d="M702.34 560.07L834.93 692.43" stroke="rgba(16, 75, 132, 1)" stroke-width="1.5"></path>
        <path d="M647.35 651.63L647.35 651.63" stroke="rgba(16, 75, 132, 1)" stroke-width="1.5"></path>
        <path d="M647.35 651.63L834.93 692.43" stroke="rgba(16, 75, 132, 1)" stroke-width="1.5"></path>
        <path d="M647.35 651.63L826.15 521.87" stroke="rgba(16, 75, 132, 1)" stroke-width="1.5"></path>
        <path d="M647.35 651.63L394.75 504.54" stroke="rgba(16, 75, 132, 1)" stroke-width="1.5"></path>
        <path d="M832.31 229.12L832.31 229.12" stroke="rgba(16, 75, 132, 1)" stroke-width="1.5"></path>
        <path d="M832.31 229.12L795.23 363.99" stroke="rgba(16, 75, 132, 1)" stroke-width="1.5"></path>
        <path d="M832.31 229.12L976.37 225.28" stroke="rgba(16, 75, 132, 1)" stroke-width="1.5"></path>
        <path d="M832.31 229.12L960.43 387.01" stroke="rgba(16, 75, 132, 1)" stroke-width="1.5"></path>
        <path d="M795.23 363.99L795.23 363.99" stroke="rgba(16, 75, 132, 1)" stroke-width="1.5"></path>
        <path d="M795.23 363.99L826.15 521.87" stroke="rgba(16, 75, 132, 1)" stroke-width="1.5"></path>
        <path d="M795.23 363.99L960.43 387.01" stroke="rgba(16, 75, 132, 1)" stroke-width="1.5"></path>
        <path d="M795.23 363.99L702.34 560.07" stroke="rgba(16, 75, 132, 1)" stroke-width="1.5"></path>
        <path d="M826.15 521.87L826.15 521.87" stroke="rgba(16, 75, 132, 1)" stroke-width="1.5"></path>
        <path d="M826.15 521.87L959.73 514.26" stroke="rgba(16, 75, 132, 1)" stroke-width="1.5"></path>
        <path d="M826.15 521.87L834.93 692.43" stroke="rgba(16, 75, 132, 1)" stroke-width="1.5"></path>
        <path d="M826.15 521.87L960.43 387.01" stroke="rgba(16, 75, 132, 1)" stroke-width="1.5"></path>
        <path d="M834.93 692.43L834.93 692.43" stroke="rgba(16, 75, 132, 1)" stroke-width="1.5"></path>
        <path d="M834.93 692.43L1005.32 669.24" stroke="rgba(16, 75, 132, 1)" stroke-width="1.5"></path>
        <path d="M997.65 -79.38L997.65 -79.38" stroke="rgba(16, 75, 132, 1)" stroke-width="1.5"></path>
        <path d="M997.65 -79.38L1114.23 -81.97" stroke="rgba(16, 75, 132, 1)" stroke-width="1.5"></path>
        <path d="M997.65 -79.38L968.46 55.54" stroke="rgba(16, 75, 132, 1)" stroke-width="1.5"></path>
        <path d="M997.65 -79.38L1140.37 48.31" stroke="rgba(16, 75, 132, 1)" stroke-width="1.5"></path>
        <path d="M968.46 55.54L968.46 55.54" stroke="rgba(16, 75, 132, 1)" stroke-width="1.5"></path>
        <path d="M968.46 55.54L976.37 225.28" stroke="rgba(16, 75, 132, 1)" stroke-width="1.5"></path>
        <path d="M968.46 55.54L1140.37 48.31" stroke="rgba(16, 75, 132, 1)" stroke-width="1.5"></path>
        <path d="M976.37 225.28L976.37 225.28" stroke="rgba(16, 75, 132, 1)" stroke-width="1.5"></path>
        <path d="M976.37 225.28L1134.93 216.28" stroke="rgba(16, 75, 132, 1)" stroke-width="1.5"></path>
        <path d="M960.43 387.01L960.43 387.01" stroke="rgba(16, 75, 132, 1)" stroke-width="1.5"></path>
        <path d="M960.43 387.01L959.73 514.26" stroke="rgba(16, 75, 132, 1)" stroke-width="1.5"></path>
        <path d="M960.43 387.01L1088.72 392.03" stroke="rgba(16, 75, 132, 1)" stroke-width="1.5"></path>
        <path d="M960.43 387.01L976.37 225.28" stroke="rgba(16, 75, 132, 1)" stroke-width="1.5"></path>
        <path d="M959.73 514.26L959.73 514.26" stroke="rgba(16, 75, 132, 1)" stroke-width="1.5"></path>
        <path d="M959.73 514.26L1108.17 524.62" stroke="rgba(16, 75, 132, 1)" stroke-width="1.5"></path>
        <path d="M1005.32 669.24L1005.32 669.24" stroke="rgba(16, 75, 132, 1)" stroke-width="1.5"></path>
        <path d="M1005.32 669.24L1128.03 655.36" stroke="rgba(16, 75, 132, 1)" stroke-width="1.5"></path>
        <path d="M1005.32 669.24L959.73 514.26" stroke="rgba(16, 75, 132, 1)" stroke-width="1.5"></path>
        <path d="M1005.32 669.24L1108.17 524.62" stroke="rgba(16, 75, 132, 1)" stroke-width="1.5"></path>
        <path d="M1114.23 -81.97L1114.23 -81.97" stroke="rgba(16, 75, 132, 1)" stroke-width="1.5"></path>
        <path d="M1114.23 -81.97L1140.37 48.31" stroke="rgba(16, 75, 132, 1)" stroke-width="1.5"></path>
        <path d="M1140.37 48.31L1140.37 48.31" stroke="rgba(16, 75, 132, 1)" stroke-width="1.5"></path>
        <path d="M1140.37 48.31L1254.55 75.67" stroke="rgba(16, 75, 132, 1)" stroke-width="1.5"></path>
        <path d="M1140.37 48.31L1134.93 216.28" stroke="rgba(16, 75, 132, 1)" stroke-width="1.5"></path>
        <path d="M1134.93 216.28L1134.93 216.28" stroke="rgba(16, 75, 132, 1)" stroke-width="1.5"></path>
        <path d="M1134.93 216.28L1286.31 234.18" stroke="rgba(16, 75, 132, 1)" stroke-width="1.5"></path>
        <path d="M1088.72 392.03L1088.72 392.03" stroke="rgba(16, 75, 132, 1)" stroke-width="1.5"></path>
        <path d="M1088.72 392.03L1108.17 524.62" stroke="rgba(16, 75, 132, 1)" stroke-width="1.5"></path>
        <path d="M1088.72 392.03L959.73 514.26" stroke="rgba(16, 75, 132, 1)" stroke-width="1.5"></path>
        <path d="M1088.72 392.03L1134.93 216.28" stroke="rgba(16, 75, 132, 1)" stroke-width="1.5"></path>
        <path d="M1108.17 524.62L1108.17 524.62" stroke="rgba(16, 75, 132, 1)" stroke-width="1.5"></path>
        <path d="M1108.17 524.62L1128.03 655.36" stroke="rgba(16, 75, 132, 1)" stroke-width="1.5"></path>
        <path d="M1108.17 524.62L1288.98 499.51" stroke="rgba(16, 75, 132, 1)" stroke-width="1.5"></path>
        <path d="M1128.03 655.36L1128.03 655.36" stroke="rgba(16, 75, 132, 1)" stroke-width="1.5"></path>
        <path d="M1128.03 655.36L1242.03 671.28" stroke="rgba(16, 75, 132, 1)" stroke-width="1.5"></path>
        <path d="M1128.03 655.36L959.73 514.26" stroke="rgba(16, 75, 132, 1)" stroke-width="1.5"></path>
        <path d="M1128.03 655.36L1288.98 499.51" stroke="rgba(16, 75, 132, 1)" stroke-width="1.5"></path>
        <path d="M1128.03 655.36L1088.72 392.03" stroke="rgba(16, 75, 132, 1)" stroke-width="1.5"></path>
        <path d="M1254.55 75.67L1254.55 75.67" stroke="rgba(16, 75, 132, 1)" stroke-width="1.5"></path>
        <path d="M1254.55 75.67L1406.67 102.4" stroke="rgba(16, 75, 132, 1)" stroke-width="1.5"></path>
        <path d="M1254.55 75.67L1286.31 234.18" stroke="rgba(16, 75, 132, 1)" stroke-width="1.5"></path>
        <path d="M1286.31 234.18L1286.31 234.18" stroke="rgba(16, 75, 132, 1)" stroke-width="1.5"></path>
        <path d="M1286.31 234.18L1388.46 201.16" stroke="rgba(16, 75, 132, 1)" stroke-width="1.5"></path>
        <path d="M1286.31 234.18L1406.67 102.4" stroke="rgba(16, 75, 132, 1)" stroke-width="1.5"></path>
        <path d="M1286.31 234.18L1421.02 376.01" stroke="rgba(16, 75, 132, 1)" stroke-width="1.5"></path>
        <path d="M1286.31 234.18L1140.37 48.31" stroke="rgba(16, 75, 132, 1)" stroke-width="1.5"></path>
        <path d="M1288.98 499.51L1288.98 499.51" stroke="rgba(16, 75, 132, 1)" stroke-width="1.5"></path>
        <path d="M1288.98 499.51L1449.31 552.13" stroke="rgba(16, 75, 132, 1)" stroke-width="1.5"></path>
        <path d="M1288.98 499.51L1242.03 671.28" stroke="rgba(16, 75, 132, 1)" stroke-width="1.5"></path>
        <path d="M1288.98 499.51L1421.02 376.01" stroke="rgba(16, 75, 132, 1)" stroke-width="1.5"></path>
        <path d="M1242.03 671.28L1242.03 671.28" stroke="rgba(16, 75, 132, 1)" stroke-width="1.5"></path>
        <path d="M1406.67 102.4L1406.67 102.4" stroke="rgba(16, 75, 132, 1)" stroke-width="1.5"></path>
        <path d="M1406.67 102.4L1388.46 201.16" stroke="rgba(16, 75, 132, 1)" stroke-width="1.5"></path>
        <path d="M1388.46 201.16L1388.46 201.16" stroke="rgba(16, 75, 132, 1)" stroke-width="1.5"></path>
        <path d="M1388.46 201.16L1560.22 200.68" stroke="rgba(16, 75, 132, 1)" stroke-width="1.5"></path>
        <path d="M1388.46 201.16L1421.02 376.01" stroke="rgba(16, 75, 132, 1)" stroke-width="1.5"></path>
        <path d="M1388.46 201.16L1254.55 75.67" stroke="rgba(16, 75, 132, 1)" stroke-width="1.5"></path>
        <path d="M1421.02 376.01L1421.02 376.01" stroke="rgba(16, 75, 132, 1)" stroke-width="1.5"></path>
        <path d="M1421.02 376.01L1547.26 500.14" stroke="rgba(16, 75, 132, 1)" stroke-width="1.5"></path>
        <path d="M1421.02 376.01L1449.31 552.13" stroke="rgba(16, 75, 132, 1)" stroke-width="1.5"></path>
        <path d="M1449.31 552.13L1449.31 552.13" stroke="rgba(16, 75, 132, 1)" stroke-width="1.5"></path>
        <path d="M1449.31 552.13L1547.26 500.14" stroke="rgba(16, 75, 132, 1)" stroke-width="1.5"></path>
        <path d="M1449.31 552.13L1455.3 676.06" stroke="rgba(16, 75, 132, 1)" stroke-width="1.5"></path>
        <path d="M1455.3 676.06L1455.3 676.06" stroke="rgba(16, 75, 132, 1)" stroke-width="1.5"></path>
        <path d="M1455.3 676.06L1610.85 643.09" stroke="rgba(16, 75, 132, 1)" stroke-width="1.5"></path>
        <path d="M1601.53 -40.07L1601.53 -40.07" stroke="rgba(16, 75, 132, 1)" stroke-width="1.5"></path>
        <path d="M1601.53 -40.07L1603.8 104.68" stroke="rgba(16, 75, 132, 1)" stroke-width="1.5"></path>
        <path d="M1601.53 -40.07L1406.67 102.4" stroke="rgba(16, 75, 132, 1)" stroke-width="1.5"></path>
        <path d="M1601.53 -40.07L1560.22 200.68" stroke="rgba(16, 75, 132, 1)" stroke-width="1.5"></path>
        <path d="M1603.8 104.68L1603.8 104.68" stroke="rgba(16, 75, 132, 1)" stroke-width="1.5"></path>
        <path d="M1603.8 104.68L1560.22 200.68" stroke="rgba(16, 75, 132, 1)" stroke-width="1.5"></path>
        <path d="M1603.8 104.68L1406.67 102.4" stroke="rgba(16, 75, 132, 1)" stroke-width="1.5"></path>
        <path d="M1603.8 104.68L1388.46 201.16" stroke="rgba(16, 75, 132, 1)" stroke-width="1.5"></path>
        <path d="M1603.8 104.68L1421.02 376.01" stroke="rgba(16, 75, 132, 1)" stroke-width="1.5"></path>
        <path d="M1560.22 200.68L1560.22 200.68" stroke="rgba(16, 75, 132, 1)" stroke-width="1.5"></path>
        <path d="M1560.22 200.68L1406.67 102.4" stroke="rgba(16, 75, 132, 1)" stroke-width="1.5"></path>
        <path d="M1560.22 200.68L1421.02 376.01" stroke="rgba(16, 75, 132, 1)" stroke-width="1.5"></path>
        <path d="M1547.26 500.14L1547.26 500.14" stroke="rgba(16, 75, 132, 1)" stroke-width="1.5"></path>
        <path d="M1547.26 500.14L1610.85 643.09" stroke="rgba(16, 75, 132, 1)" stroke-width="1.5"></path>
        <path d="M1610.85 643.09L1610.85 643.09" stroke="rgba(16, 75, 132, 1)" stroke-width="1.5"></path>
        <path d="M1610.85 643.09L1449.31 552.13" stroke="rgba(16, 75, 132, 1)" stroke-width="1.5"></path>
        <circle r="5" cx="-78.14" cy="394.02" fill="rgba(16, 75, 132, 1)"></circle>
        <circle r="5" cx="-39.54" cy="503" fill="rgba(16, 75, 132, 1)"></circle>
        <circle r="5" cx="-103.16" cy="710.41" fill="rgba(16, 75, 132, 1)"></circle>
        <circle r="5" cx="96.38" cy="410.16" fill="rgba(16, 75, 132, 1)"></circle>
        <circle r="5" cx="89.2" cy="491.25" fill="rgba(16, 75, 132, 1)"></circle>
        <circle r="5" cx="54.82" cy="692.17" fill="rgba(16, 75, 132, 1)"></circle>
        <circle r="5" cx="245.16" cy="375.68" fill="rgba(16, 75, 132, 1)"></circle>
        <circle r="5" cx="198.95" cy="555.05" fill="rgba(16, 75, 132, 1)"></circle>
        <circle r="5" cx="345.55" cy="378.43" fill="rgba(16, 75, 132, 1)"></circle>
        <circle r="5" cx="394.75" cy="504.54" fill="rgba(16, 75, 132, 1)"></circle>
        <circle r="5" cx="411" cy="673.69" fill="rgba(16, 75, 132, 1)"></circle>
        <circle r="5" cx="504.73" cy="339.97" fill="rgba(16, 75, 132, 1)"></circle>
        <circle r="5" cx="526.08" cy="546.4" fill="rgba(16, 75, 132, 1)"></circle>
        <circle r="5" cx="668.69" cy="216.85" fill="rgba(16, 75, 132, 1)"></circle>
        <circle r="5" cx="645.36" cy="338.69" fill="rgba(16, 75, 132, 1)"></circle>
        <circle r="5" cx="702.34" cy="560.07" fill="rgba(16, 75, 132, 1)"></circle>
        <circle r="5" cx="647.35" cy="651.63" fill="rgba(16, 75, 132, 1)"></circle>
        <circle r="5" cx="832.31" cy="229.12" fill="rgba(16, 75, 132, 1)"></circle>
        <circle r="5" cx="795.23" cy="363.99" fill="rgba(16, 75, 132, 1)"></circle>
        <circle r="5" cx="826.15" cy="521.87" fill="rgba(16, 75, 132, 1)"></circle>
        <circle r="5" cx="834.93" cy="692.43" fill="rgba(16, 75, 132, 1)"></circle>
        <circle r="5" cx="997.65" cy="-79.38" fill="rgba(16, 75, 132, 1)"></circle>
        <circle r="5" cx="968.46" cy="55.54" fill="rgba(16, 75, 132, 1)"></circle>
        <circle r="5" cx="976.37" cy="225.28" fill="rgba(16, 75, 132, 1)"></circle>
        <circle r="5" cx="960.43" cy="387.01" fill="rgba(16, 75, 132, 1)"></circle>
        <circle r="5" cx="959.73" cy="514.26" fill="rgba(16, 75, 132, 1)"></circle>
        <circle r="5" cx="1005.32" cy="669.24" fill="rgba(16, 75, 132, 1)"></circle>
        <circle r="5" cx="1114.23" cy="-81.97" fill="rgba(16, 75, 132, 1)"></circle>
        <circle r="5" cx="1140.37" cy="48.31" fill="rgba(16, 75, 132, 1)"></circle>
        <circle r="5" cx="1134.93" cy="216.28" fill="rgba(16, 75, 132, 1)"></circle>
        <circle r="5" cx="1088.72" cy="392.03" fill="rgba(16, 75, 132, 1)"></circle>
        <circle r="5" cx="1108.17" cy="524.62" fill="rgba(16, 75, 132, 1)"></circle>
        <circle r="5" cx="1128.03" cy="655.36" fill="rgba(16, 75, 132, 1)"></circle>
        <circle r="5" cx="1254.55" cy="75.67" fill="rgba(16, 75, 132, 1)"></circle>
        <circle r="5" cx="1286.31" cy="234.18" fill="rgba(16, 75, 132, 1)"></circle>
        <circle r="5" cx="1288.98" cy="499.51" fill="rgba(16, 75, 132, 1)"></circle>
        <circle r="5" cx="1242.03" cy="671.28" fill="rgba(16, 75, 132, 1)"></circle>
        <circle r="5" cx="1406.67" cy="102.4" fill="rgba(16, 75, 132, 1)"></circle>
        <circle r="5" cx="1388.46" cy="201.16" fill="rgba(16, 75, 132, 1)"></circle>
        <circle r="5" cx="1421.02" cy="376.01" fill="rgba(16, 75, 132, 1)"></circle>
        <circle r="5" cx="1449.31" cy="552.13" fill="rgba(16, 75, 132, 1)"></circle>
        <circle r="5" cx="1455.3" cy="676.06" fill="rgba(16, 75, 132, 1)"></circle>
        <circle r="5" cx="1601.53" cy="-40.07" fill="rgba(16, 75, 132, 1)"></circle>
        <circle r="5" cx="1603.8" cy="104.68" fill="rgba(16, 75, 132, 1)"></circle>
        <circle r="5" cx="1560.22" cy="200.68" fill="rgba(16, 75, 132, 1)"></circle>
        <circle r="5" cx="1547.26" cy="500.14" fill="rgba(16, 75, 132, 1)"></circle>
        <circle r="5" cx="1610.85" cy="643.09" fill="rgba(16, 75, 132, 1)"></circle>
        <path d="M54.29 492.51L54.29 492.51" stroke="hsl(210, 86.8%, 68.3%)" stroke-width="1.5"></path>
        <path d="M54.29 492.51L-74.17 552.61" stroke="hsl(210, 86.8%, 68.3%)" stroke-width="1.5"></path>
        <path d="M54.29 492.51L109.54 690.51" stroke="hsl(210, 86.8%, 68.3%)" stroke-width="1.5"></path>
        <path d="M54.29 492.51L260.11 557.36" stroke="hsl(210, 86.8%, 68.3%)" stroke-width="1.5"></path>
        <path d="M54.29 492.51L233.57 694.36" stroke="hsl(210, 86.8%, 68.3%)" stroke-width="1.5"></path>
        <path d="M54.29 492.51L369.36 557.33" stroke="hsl(210, 86.8%, 68.3%)" stroke-width="1.5"></path>
        <path d="M54.29 492.51L348.42 649.88" stroke="hsl(210, 86.8%, 68.3%)" stroke-width="1.5"></path>
        <path d="M260.11 557.36L260.11 557.36" stroke="hsl(210, 86.8%, 68.3%)" stroke-width="1.5"></path>
        <path d="M260.11 557.36L369.36 557.33" stroke="hsl(210, 86.8%, 68.3%)" stroke-width="1.5"></path>
        <path d="M260.11 557.36L348.42 649.88" stroke="hsl(210, 86.8%, 68.3%)" stroke-width="1.5"></path>
        <path d="M260.11 557.36L233.57 694.36" stroke="hsl(210, 86.8%, 68.3%)" stroke-width="1.5"></path>
        <path d="M260.11 557.36L109.54 690.51" stroke="hsl(210, 86.8%, 68.3%)" stroke-width="1.5"></path>
        <path d="M348.42 649.88L348.42 649.88" stroke="hsl(210, 86.8%, 68.3%)" stroke-width="1.5"></path>
        <path d="M348.42 649.88L369.36 557.33" stroke="hsl(210, 86.8%, 68.3%)" stroke-width="1.5"></path>
        <path d="M348.42 649.88L233.57 694.36" stroke="hsl(210, 86.8%, 68.3%)" stroke-width="1.5"></path>
        <path d="M348.42 649.88L549.64 658.97" stroke="hsl(210, 86.8%, 68.3%)" stroke-width="1.5"></path>
        <path d="M348.42 649.88L109.54 690.51" stroke="hsl(210, 86.8%, 68.3%)" stroke-width="1.5"></path>
        <path d="M348.42 649.88L644.74 551.54" stroke="hsl(210, 86.8%, 68.3%)" stroke-width="1.5"></path>
        <path d="M1289.38 56.64L1289.38 56.64" stroke="hsl(210, 86.8%, 68.3%)" stroke-width="1.5"></path>
        <path d="M1289.38 56.64L1412.8 83.16" stroke="hsl(210, 86.8%, 68.3%)" stroke-width="1.5"></path>
        <path d="M1289.38 56.64L1398.41 -41.61" stroke="hsl(210, 86.8%, 68.3%)" stroke-width="1.5"></path>
        <path d="M1289.38 56.64L1264.16 -91.42" stroke="hsl(210, 86.8%, 68.3%)" stroke-width="1.5"></path>
        <path d="M1289.38 56.64L1137.33 98.89" stroke="hsl(210, 86.8%, 68.3%)" stroke-width="1.5"></path>
        <path d="M1289.38 56.64L1287.18 236.06" stroke="hsl(210, 86.8%, 68.3%)" stroke-width="1.5"></path>
        <path d="M1289.38 56.64L1423.17 261.38" stroke="hsl(210, 86.8%, 68.3%)" stroke-width="1.5"></path>
        <path d="M1586.25 261.52L1586.25 261.52" stroke="hsl(210, 86.8%, 68.3%)" stroke-width="1.5"></path>
        <path d="M1586.25 261.52L1569.36 392.88" stroke="hsl(210, 86.8%, 68.3%)" stroke-width="1.5"></path>
        <path d="M1586.25 261.52L1423.17 261.38" stroke="hsl(210, 86.8%, 68.3%)" stroke-width="1.5"></path>
        <path d="M1586.25 261.52L1596.25 72" stroke="hsl(210, 86.8%, 68.3%)" stroke-width="1.5"></path>
        <path d="M1586.25 261.52L1400.18 352.21" stroke="hsl(210, 86.8%, 68.3%)" stroke-width="1.5"></path>
        <path d="M1586.25 261.52L1412.8 83.16" stroke="hsl(210, 86.8%, 68.3%)" stroke-width="1.5"></path>
        <path d="M-74.17 552.61L-74.17 552.61" stroke="hsl(210, 86.8%, 68.3%)" stroke-width="1.5"></path>
        <path d="M-74.17 552.61L109.54 690.51" stroke="hsl(210, 86.8%, 68.3%)" stroke-width="1.5"></path>
        <path d="M109.54 690.51L109.54 690.51" stroke="hsl(210, 86.8%, 68.3%)" stroke-width="1.5"></path>
        <path d="M109.54 690.51L233.57 694.36" stroke="hsl(210, 86.8%, 68.3%)" stroke-width="1.5"></path>
        <path d="M233.57 694.36L233.57 694.36" stroke="hsl(210, 86.8%, 68.3%)" stroke-width="1.5"></path>
        <path d="M233.57 694.36L369.36 557.33" stroke="hsl(210, 86.8%, 68.3%)" stroke-width="1.5"></path>
        <path d="M369.36 557.33L369.36 557.33" stroke="hsl(210, 86.8%, 68.3%)" stroke-width="1.5"></path>
        <path d="M369.36 557.33L549.64 658.97" stroke="hsl(210, 86.8%, 68.3%)" stroke-width="1.5"></path>
        <path d="M369.36 557.33L644.74 551.54" stroke="hsl(210, 86.8%, 68.3%)" stroke-width="1.5"></path>
        <path d="M369.36 557.33L109.54 690.51" stroke="hsl(210, 86.8%, 68.3%)" stroke-width="1.5"></path>
        <path d="M549.64 658.97L549.64 658.97" stroke="hsl(210, 86.8%, 68.3%)" stroke-width="1.5"></path>
        <path d="M549.64 658.97L644.74 551.54" stroke="hsl(210, 86.8%, 68.3%)" stroke-width="1.5"></path>
        <path d="M549.64 658.97L705.57 642.63" stroke="hsl(210, 86.8%, 68.3%)" stroke-width="1.5"></path>
        <path d="M644.74 551.54L644.74 551.54" stroke="hsl(210, 86.8%, 68.3%)" stroke-width="1.5"></path>
        <path d="M644.74 551.54L705.57 642.63" stroke="hsl(210, 86.8%, 68.3%)" stroke-width="1.5"></path>
        <path d="M705.57 642.63L705.57 642.63" stroke="hsl(210, 86.8%, 68.3%)" stroke-width="1.5"></path>
        <path d="M705.57 642.63L816.76 709.87" stroke="hsl(210, 86.8%, 68.3%)" stroke-width="1.5"></path>
        <path d="M826.23 344.85L826.23 344.85" stroke="hsl(210, 86.8%, 68.3%)" stroke-width="1.5"></path>
        <path d="M826.23 344.85L965.52 405.48" stroke="hsl(210, 86.8%, 68.3%)" stroke-width="1.5"></path>
        <path d="M826.23 344.85L853.95 531.38" stroke="hsl(210, 86.8%, 68.3%)" stroke-width="1.5"></path>
        <path d="M826.23 344.85L997.54 254.88" stroke="hsl(210, 86.8%, 68.3%)" stroke-width="1.5"></path>
        <path d="M826.23 344.85L989.12 537.02" stroke="hsl(210, 86.8%, 68.3%)" stroke-width="1.5"></path>
        <path d="M826.23 344.85L644.74 551.54" stroke="hsl(210, 86.8%, 68.3%)" stroke-width="1.5"></path>
        <path d="M853.95 531.38L853.95 531.38" stroke="hsl(210, 86.8%, 68.3%)" stroke-width="1.5"></path>
        <path d="M853.95 531.38L989.12 537.02" stroke="hsl(210, 86.8%, 68.3%)" stroke-width="1.5"></path>
        <path d="M853.95 531.38L965.52 405.48" stroke="hsl(210, 86.8%, 68.3%)" stroke-width="1.5"></path>
        <path d="M816.76 709.87L816.76 709.87" stroke="hsl(210, 86.8%, 68.3%)" stroke-width="1.5"></path>
        <path d="M816.76 709.87L960.33 678.68" stroke="hsl(210, 86.8%, 68.3%)" stroke-width="1.5"></path>
        <path d="M816.76 709.87L853.95 531.38" stroke="hsl(210, 86.8%, 68.3%)" stroke-width="1.5"></path>
        <path d="M997.54 254.88L997.54 254.88" stroke="hsl(210, 86.8%, 68.3%)" stroke-width="1.5"></path>
        <path d="M997.54 254.88L1094.34 215.74" stroke="hsl(210, 86.8%, 68.3%)" stroke-width="1.5"></path>
        <path d="M997.54 254.88L1110.56 342.99" stroke="hsl(210, 86.8%, 68.3%)" stroke-width="1.5"></path>
        <path d="M997.54 254.88L965.52 405.48" stroke="hsl(210, 86.8%, 68.3%)" stroke-width="1.5"></path>
        <path d="M997.54 254.88L1137.33 98.89" stroke="hsl(210, 86.8%, 68.3%)" stroke-width="1.5"></path>
        <path d="M965.52 405.48L965.52 405.48" stroke="hsl(210, 86.8%, 68.3%)" stroke-width="1.5"></path>
        <path d="M965.52 405.48L989.12 537.02" stroke="hsl(210, 86.8%, 68.3%)" stroke-width="1.5"></path>
        <path d="M989.12 537.02L989.12 537.02" stroke="hsl(210, 86.8%, 68.3%)" stroke-width="1.5"></path>
        <path d="M989.12 537.02L960.33 678.68" stroke="hsl(210, 86.8%, 68.3%)" stroke-width="1.5"></path>
        <path d="M989.12 537.02L1140.49 531.3" stroke="hsl(210, 86.8%, 68.3%)" stroke-width="1.5"></path>
        <path d="M989.12 537.02L1155.99 679.21" stroke="hsl(210, 86.8%, 68.3%)" stroke-width="1.5"></path>
        <path d="M989.12 537.02L1110.56 342.99" stroke="hsl(210, 86.8%, 68.3%)" stroke-width="1.5"></path>
        <path d="M960.33 678.68L960.33 678.68" stroke="hsl(210, 86.8%, 68.3%)" stroke-width="1.5"></path>
        <path d="M1137.33 98.89L1137.33 98.89" stroke="hsl(210, 86.8%, 68.3%)" stroke-width="1.5"></path>
        <path d="M1137.33 98.89L1094.34 215.74" stroke="hsl(210, 86.8%, 68.3%)" stroke-width="1.5"></path>
        <path d="M1094.34 215.74L1094.34 215.74" stroke="hsl(210, 86.8%, 68.3%)" stroke-width="1.5"></path>
        <path d="M1094.34 215.74L1110.56 342.99" stroke="hsl(210, 86.8%, 68.3%)" stroke-width="1.5"></path>
        <path d="M1110.56 342.99L1110.56 342.99" stroke="hsl(210, 86.8%, 68.3%)" stroke-width="1.5"></path>
        <path d="M1140.49 531.3L1140.49 531.3" stroke="hsl(210, 86.8%, 68.3%)" stroke-width="1.5"></path>
        <path d="M1140.49 531.3L1155.99 679.21" stroke="hsl(210, 86.8%, 68.3%)" stroke-width="1.5"></path>
        <path d="M1140.49 531.3L1110.56 342.99" stroke="hsl(210, 86.8%, 68.3%)" stroke-width="1.5"></path>
        <path d="M1155.99 679.21L1155.99 679.21" stroke="hsl(210, 86.8%, 68.3%)" stroke-width="1.5"></path>
        <path d="M1155.99 679.21L1261.22 689.21" stroke="hsl(210, 86.8%, 68.3%)" stroke-width="1.5"></path>
        <path d="M1155.99 679.21L960.33 678.68" stroke="hsl(210, 86.8%, 68.3%)" stroke-width="1.5"></path>
        <path d="M1264.16 -91.42L1264.16 -91.42" stroke="hsl(210, 86.8%, 68.3%)" stroke-width="1.5"></path>
        <path d="M1264.16 -91.42L1398.41 -41.61" stroke="hsl(210, 86.8%, 68.3%)" stroke-width="1.5"></path>
        <path d="M1287.18 236.06L1287.18 236.06" stroke="hsl(210, 86.8%, 68.3%)" stroke-width="1.5"></path>
        <path d="M1287.18 236.06L1423.17 261.38" stroke="hsl(210, 86.8%, 68.3%)" stroke-width="1.5"></path>
        <path d="M1287.18 236.06L1400.18 352.21" stroke="hsl(210, 86.8%, 68.3%)" stroke-width="1.5"></path>
        <path d="M1287.18 236.06L1296.74 398.85" stroke="hsl(210, 86.8%, 68.3%)" stroke-width="1.5"></path>
        <path d="M1296.74 398.85L1296.74 398.85" stroke="hsl(210, 86.8%, 68.3%)" stroke-width="1.5"></path>
        <path d="M1296.74 398.85L1400.18 352.21" stroke="hsl(210, 86.8%, 68.3%)" stroke-width="1.5"></path>
        <path d="M1261.22 689.21L1261.22 689.21" stroke="hsl(210, 86.8%, 68.3%)" stroke-width="1.5"></path>
        <path d="M1261.22 689.21L1402.42 703.94" stroke="hsl(210, 86.8%, 68.3%)" stroke-width="1.5"></path>
        <path d="M1261.22 689.21L1140.49 531.3" stroke="hsl(210, 86.8%, 68.3%)" stroke-width="1.5"></path>
        <path d="M1261.22 689.21L1446.06 537.55" stroke="hsl(210, 86.8%, 68.3%)" stroke-width="1.5"></path>
        <path d="M1261.22 689.21L1296.74 398.85" stroke="hsl(210, 86.8%, 68.3%)" stroke-width="1.5"></path>
        <path d="M1398.41 -41.61L1398.41 -41.61" stroke="hsl(210, 86.8%, 68.3%)" stroke-width="1.5"></path>
        <path d="M1398.41 -41.61L1412.8 83.16" stroke="hsl(210, 86.8%, 68.3%)" stroke-width="1.5"></path>
        <path d="M1412.8 83.16L1412.8 83.16" stroke="hsl(210, 86.8%, 68.3%)" stroke-width="1.5"></path>
        <path d="M1412.8 83.16L1423.17 261.38" stroke="hsl(210, 86.8%, 68.3%)" stroke-width="1.5"></path>
        <path d="M1423.17 261.38L1423.17 261.38" stroke="hsl(210, 86.8%, 68.3%)" stroke-width="1.5"></path>
        <path d="M1423.17 261.38L1400.18 352.21" stroke="hsl(210, 86.8%, 68.3%)" stroke-width="1.5"></path>
        <path d="M1423.17 261.38L1296.74 398.85" stroke="hsl(210, 86.8%, 68.3%)" stroke-width="1.5"></path>
        <path d="M1400.18 352.21L1400.18 352.21" stroke="hsl(210, 86.8%, 68.3%)" stroke-width="1.5"></path>
        <path d="M1446.06 537.55L1446.06 537.55" stroke="hsl(210, 86.8%, 68.3%)" stroke-width="1.5"></path>
        <path d="M1446.06 537.55L1552.39 556.33" stroke="hsl(210, 86.8%, 68.3%)" stroke-width="1.5"></path>
        <path d="M1446.06 537.55L1402.42 703.94" stroke="hsl(210, 86.8%, 68.3%)" stroke-width="1.5"></path>
        <path d="M1402.42 703.94L1402.42 703.94" stroke="hsl(210, 86.8%, 68.3%)" stroke-width="1.5"></path>
        <path d="M1402.42 703.94L1581.79 700.13" stroke="hsl(210, 86.8%, 68.3%)" stroke-width="1.5"></path>
        <path d="M1402.42 703.94L1552.39 556.33" stroke="hsl(210, 86.8%, 68.3%)" stroke-width="1.5"></path>
        <path d="M1402.42 703.94L1155.99 679.21" stroke="hsl(210, 86.8%, 68.3%)" stroke-width="1.5"></path>
        <path d="M1402.42 703.94L1140.49 531.3" stroke="hsl(210, 86.8%, 68.3%)" stroke-width="1.5"></path>
        <path d="M1588.61 -83.77L1588.61 -83.77" stroke="hsl(210, 86.8%, 68.3%)" stroke-width="1.5"></path>
        <path d="M1588.61 -83.77L1596.25 72" stroke="hsl(210, 86.8%, 68.3%)" stroke-width="1.5"></path>
        <path d="M1588.61 -83.77L1398.41 -41.61" stroke="hsl(210, 86.8%, 68.3%)" stroke-width="1.5"></path>
        <path d="M1588.61 -83.77L1412.8 83.16" stroke="hsl(210, 86.8%, 68.3%)" stroke-width="1.5"></path>
        <path d="M1588.61 -83.77L1264.16 -91.42" stroke="hsl(210, 86.8%, 68.3%)" stroke-width="1.5"></path>
        <path d="M1588.61 -83.77L1289.38 56.64" stroke="hsl(210, 86.8%, 68.3%)" stroke-width="1.5"></path>
        <path d="M1596.25 72L1596.25 72" stroke="hsl(210, 86.8%, 68.3%)" stroke-width="1.5"></path>
        <path d="M1596.25 72L1412.8 83.16" stroke="hsl(210, 86.8%, 68.3%)" stroke-width="1.5"></path>
        <path d="M1596.25 72L1398.41 -41.61" stroke="hsl(210, 86.8%, 68.3%)" stroke-width="1.5"></path>
        <path d="M1596.25 72L1423.17 261.38" stroke="hsl(210, 86.8%, 68.3%)" stroke-width="1.5"></path>
        <path d="M1596.25 72L1289.38 56.64" stroke="hsl(210, 86.8%, 68.3%)" stroke-width="1.5"></path>
        <path d="M1569.36 392.88L1569.36 392.88" stroke="hsl(210, 86.8%, 68.3%)" stroke-width="1.5"></path>
        <path d="M1569.36 392.88L1552.39 556.33" stroke="hsl(210, 86.8%, 68.3%)" stroke-width="1.5"></path>
        <path d="M1569.36 392.88L1400.18 352.21" stroke="hsl(210, 86.8%, 68.3%)" stroke-width="1.5"></path>
        <path d="M1569.36 392.88L1446.06 537.55" stroke="hsl(210, 86.8%, 68.3%)" stroke-width="1.5"></path>
        <path d="M1569.36 392.88L1423.17 261.38" stroke="hsl(210, 86.8%, 68.3%)" stroke-width="1.5"></path>
        <path d="M1569.36 392.88L1296.74 398.85" stroke="hsl(210, 86.8%, 68.3%)" stroke-width="1.5"></path>
        <path d="M1552.39 556.33L1552.39 556.33" stroke="hsl(210, 86.8%, 68.3%)" stroke-width="1.5"></path>
        <path d="M1552.39 556.33L1581.79 700.13" stroke="hsl(210, 86.8%, 68.3%)" stroke-width="1.5"></path>
        <path d="M1552.39 556.33L1400.18 352.21" stroke="hsl(210, 86.8%, 68.3%)" stroke-width="1.5"></path>
        <path d="M1552.39 556.33L1586.25 261.52" stroke="hsl(210, 86.8%, 68.3%)" stroke-width="1.5"></path>
        <path d="M1581.79 700.13L1581.79 700.13" stroke="hsl(210, 86.8%, 68.3%)" stroke-width="1.5"></path>
        <path d="M1581.79 700.13L1446.06 537.55" stroke="hsl(210, 86.8%, 68.3%)" stroke-width="1.5"></path>
        <path d="M1581.79 700.13L1569.36 392.88" stroke="hsl(210, 86.8%, 68.3%)" stroke-width="1.5"></path>
        <path d="M1581.79 700.13L1261.22 689.21" stroke="hsl(210, 86.8%, 68.3%)" stroke-width="1.5"></path>
        <circle r="25" cx="54.29" cy="492.51" fill="url(#SvgjsRadialGradient1015)"></circle>
        <circle r="25" cx="260.11" cy="557.36" fill="url(#SvgjsRadialGradient1015)"></circle>
        <circle r="25" cx="348.42" cy="649.88" fill="url(#SvgjsRadialGradient1015)"></circle>
        <circle r="25" cx="1289.38" cy="56.64" fill="url(#SvgjsRadialGradient1015)"></circle>
        <circle r="25" cx="1586.25" cy="261.52" fill="url(#SvgjsRadialGradient1015)"></circle>
        <circle r="5" cx="-74.17" cy="552.61" fill="#8ec3f7"></circle>
        <circle r="5" cx="109.54" cy="690.51" fill="#8ec3f7"></circle>
        <circle r="5" cx="233.57" cy="694.36" fill="#8ec3f7"></circle>
        <circle r="5" cx="369.36" cy="557.33" fill="#8ec3f7"></circle>
        <circle r="5" cx="549.64" cy="658.97" fill="#8ec3f7"></circle>
        <circle r="5" cx="644.74" cy="551.54" fill="#8ec3f7"></circle>
        <circle r="5" cx="705.57" cy="642.63" fill="#8ec3f7"></circle>
        <circle r="5" cx="826.23" cy="344.85" fill="#8ec3f7"></circle>
        <circle r="5" cx="853.95" cy="531.38" fill="#8ec3f7"></circle>
        <circle r="5" cx="816.76" cy="709.87" fill="#8ec3f7"></circle>
        <circle r="5" cx="997.54" cy="254.88" fill="#8ec3f7"></circle>
        <circle r="5" cx="965.52" cy="405.48" fill="#8ec3f7"></circle>
        <circle r="5" cx="989.12" cy="537.02" fill="#8ec3f7"></circle>
        <circle r="5" cx="960.33" cy="678.68" fill="#8ec3f7"></circle>
        <circle r="5" cx="1137.33" cy="98.89" fill="#8ec3f7"></circle>
        <circle r="5" cx="1094.34" cy="215.74" fill="#8ec3f7"></circle>
        <circle r="5" cx="1110.56" cy="342.99" fill="#8ec3f7"></circle>
        <circle r="5" cx="1140.49" cy="531.3" fill="#8ec3f7"></circle>
        <circle r="5" cx="1155.99" cy="679.21" fill="#8ec3f7"></circle>
        <circle r="5" cx="1264.16" cy="-91.42" fill="#8ec3f7"></circle>
        <circle r="5" cx="1287.18" cy="236.06" fill="#8ec3f7"></circle>
        <circle r="5" cx="1296.74" cy="398.85" fill="#8ec3f7"></circle>
        <circle r="5" cx="1261.22" cy="689.21" fill="#8ec3f7"></circle>
        <circle r="5" cx="1398.41" cy="-41.61" fill="#8ec3f7"></circle>
        <circle r="5" cx="1412.8" cy="83.16" fill="#8ec3f7"></circle>
        <circle r="5" cx="1423.17" cy="261.38" fill="#8ec3f7"></circle>
        <circle r="5" cx="1400.18" cy="352.21" fill="#8ec3f7"></circle>
        <circle r="5" cx="1446.06" cy="537.55" fill="#8ec3f7"></circle>
        <circle r="5" cx="1402.42" cy="703.94" fill="#8ec3f7"></circle>
        <circle r="5" cx="1588.61" cy="-83.77" fill="#8ec3f7"></circle>
        <circle r="5" cx="1596.25" cy="72" fill="#8ec3f7"></circle>
        <circle r="5" cx="1569.36" cy="392.88" fill="#8ec3f7"></circle>
        <circle r="5" cx="1552.39" cy="556.33" fill="#8ec3f7"></circle>
        <circle r="5" cx="1581.79" cy="700.13" fill="#8ec3f7"></circle>
    </g>
    <defs>
        <mask id="SvgjsMask1014">
            <rect width="1440" height="560" fill="#ffffff"></rect>
        </mask>
        <radialGradient id="SvgjsRadialGradient1015">
            <stop stop-color="#ffffff" offset="0.1"></stop>
            <stop stop-color="rgba(29, 134, 239, 1)" offset="0.2"></stop>
            <stop stop-color="rgba(29, 134, 239, 0)" offset="1"></stop>
        </radialGradient>
    </defs>
</svg>